<svg width="25" height="25" viewBox="0 0 25 25" fill="none" xmlns="http://www.w3.org/2000/svg">
<path d="M7.52936 10.8587C8.96936 13.6887 11.2894 16.0087 14.1194 17.4487L16.3194 15.2487C16.5994 14.9687 16.9894 14.8887 17.3394 14.9987C18.4594 15.3687 19.6594 15.5687 20.9094 15.5687C21.1746 15.5687 21.4289 15.6741 21.6165 15.8616C21.804 16.0492 21.9094 16.3035 21.9094 16.5687V20.0687C21.9094 20.3339 21.804 20.5883 21.6165 20.7758C21.4289 20.9634 21.1746 21.0687 20.9094 21.0687C16.4007 21.0687 12.0767 19.2777 8.88854 16.0895C5.70042 12.9014 3.90936 8.57741 3.90936 4.06873C3.90936 3.80351 4.01471 3.54916 4.20225 3.36162C4.38979 3.17408 4.64414 3.06873 4.90936 3.06873H8.40936C8.67457 3.06873 8.92893 3.17408 9.11646 3.36162C9.304 3.54916 9.40936 3.80351 9.40936 4.06873C9.40936 5.31873 9.60936 6.51873 9.97936 7.63873C10.0894 7.98873 10.0094 8.37873 9.72936 8.65873L7.52936 10.8587Z" fill="#FF8000"/>
</svg>
